<svg xmlns="http://www.w3.org/2000/svg" width="1600" height="900" viewBox="0 0 1600 900" role="img" aria-labelledby="title desc">
  <title id="title">Echo Village — AI 驅動 NPC 生活模擬</title><desc id="desc">溫暖的村落地圖與 NPC 決策、記憶、關係資訊圖。</desc>
  <defs><linearGradient id="sky" x2="0" y2="1"><stop stop-color="#183348"/><stop offset="1" stop-color="#386b6a"/></linearGradient><filter id="shadow"><feDropShadow dx="0" dy="10" stdDeviation="12" flood-opacity=".25"/></filter></defs>
  <rect width="1600" height="900" fill="url(#sky)"/><circle cx="1260" cy="155" r="86" fill="#e7aa4c" opacity=".92"/><circle cx="1260" cy="155" r="116" fill="none" stroke="#e7aa4c" opacity=".16" stroke-width="2"/>
  <text x="110" y="135" fill="#f7edcf" font-family="Georgia,serif" font-size="68" font-weight="bold">ECHO VILLAGE</text><text x="116" y="183" fill="#dfc995" font-family="sans-serif" font-size="24" letter-spacing="5">AI-DRIVEN NPC LIFE SIMULATION</text>
  <g transform="translate(110 245)" filter="url(#shadow)"><rect width="940" height="540" rx="26" fill="#2f7257" stroke="#f7edcf" stroke-width="4"/><path d="M50 260H890M470 42V500" stroke="#d7bd83" stroke-width="48" stroke-linecap="round"/><circle cx="470" cy="260" r="75" fill="#79b786" stroke="#f7edcf" stroke-width="4"/>
    <g fill="#f7edcf" stroke="#241d1a" stroke-width="4"><rect x="90" y="80" width="145" height="108" rx="8"/><rect x="690" y="82" width="150" height="108" rx="8"/><rect x="690" y="345" width="160" height="105" rx="8"/><rect x="92" y="350" width="145" height="105" rx="8"/></g>
    <g fill="#bb594d"><path d="M70 80h185l-92-55z"/><path d="M670 82h190l-95-55z"/></g><g fill="#9b7051"><path d="M670 345h200l-100-55z"/></g><g fill="#a16b87"><path d="M72 350h185l-93-55z"/></g>
    <g font-family="sans-serif" font-size="18" font-weight="bold" fill="#241d1a" text-anchor="middle"><text x="162" y="145">酒館</text><text x="765" y="145">商店</text><text x="770" y="414">農場</text><text x="164" y="417">醫館</text></g>
    <g stroke="#241d1a" stroke-width="5"><circle cx="735" cy="235" r="19" fill="#e7aa4c"/><circle cx="720" cy="410" r="19" fill="#f7edcf"/><circle cx="300" cy="270" r="19" fill="#f7edcf"/><circle cx="300" cy="440" r="19" fill="#f7edcf"/><circle cx="820" cy="450" r="19" fill="#f7edcf"/><circle cx="470" cy="340" r="20" fill="#5c9fb2"/></g>
  </g>
  <g transform="translate(1100 278)" font-family="sans-serif"><text fill="#f7edcf" font-size="28" font-weight="bold">村民決策證據</text><g transform="translate(0 38)"><rect width="390" height="96" rx="16" fill="#f7edcf"/><text x="20" y="34" fill="#241d1a" font-size="20" font-weight="bold">鮑伯 · 農夫 · 協助</text><text x="20" y="66" fill="#4d4036" font-size="16">安全 72　勇氣 0.72　Help 79</text></g><g transform="translate(0 150)"><rect width="390" height="96" rx="16" fill="#f7edcf"/><text x="20" y="34" fill="#241d1a" font-size="20" font-weight="bold">艾莉絲 · 店主 · 逃離</text><text x="20" y="66" fill="#4d4036" font-size="16">安全 72　勇氣 0.40　Flee 76</text></g><path d="M45 280h300" stroke="#dfc995" stroke-width="2"/><text y="330" fill="#dfc995" font-size="18">需求 + 日程 + 人格 + 記憶</text><text y="362" fill="#f7edcf" font-size="24" font-weight="bold">→ Utility AI → 行動</text></g>
  <g transform="translate(1110 690)"><rect width="360" height="74" rx="37" fill="#e7aa4c"/><text x="180" y="47" text-anchor="middle" fill="#241d1a" font-family="sans-serif" font-size="22" font-weight="bold">GODOT 4 · GDSCRIPT · JSON</text></g>
</svg>
